<?xml version="1.0" encoding="UTF-8" standalone="no"?>
<!-- Created with Inkscape (http://www.inkscape.org/) -->

<svg
   xmlns:dc="http://purl.org/dc/elements/1.1/"
   xmlns:cc="http://creativecommons.org/ns#"
   xmlns:rdf="http://www.w3.org/1999/02/22-rdf-syntax-ns#"
   xmlns:svg="http://www.w3.org/2000/svg"
   xmlns="http://www.w3.org/2000/svg"
   xmlns:xlink="http://www.w3.org/1999/xlink"
   xmlns:sodipodi="http://sodipodi.sourceforge.net/DTD/sodipodi-0.dtd"
   xmlns:inkscape="http://www.inkscape.org/namespaces/inkscape"
   width="744.09448819"
   height="1052.3622047"
   id="svg2"
   version="1.1"
   inkscape:version="0.47 r22583"
   sodipodi:docname="modifiers"
   inkscape:export-filename="C:\Program Files\BlitzMax\mod\dwlab.mod\framework.mod\editor\modifiers.png"
   inkscape:export-xdpi="90"
   inkscape:export-ydpi="90">
  <defs
     id="defs4">
    <inkscape:perspective
       sodipodi:type="inkscape:persp3d"
       inkscape:vp_x="0 : 526.18109 : 1"
       inkscape:vp_y="0 : 1000 : 0"
       inkscape:vp_z="744.09448 : 526.18109 : 1"
       inkscape:persp3d-origin="372.04724 : 350.78739 : 1"
       id="perspective10" />
    <inkscape:perspective
       id="perspective2824"
       inkscape:persp3d-origin="0.5 : 0.33333333 : 1"
       inkscape:vp_z="1 : 0.5 : 1"
       inkscape:vp_y="0 : 1000 : 0"
       inkscape:vp_x="0 : 0.5 : 1"
       sodipodi:type="inkscape:persp3d" />
    <inkscape:perspective
       id="perspective3786"
       inkscape:persp3d-origin="0.5 : 0.33333333 : 1"
       inkscape:vp_z="1 : 0.5 : 1"
       inkscape:vp_y="0 : 1000 : 0"
       inkscape:vp_x="0 : 0.5 : 1"
       sodipodi:type="inkscape:persp3d" />
    <inkscape:perspective
       id="perspective3800"
       inkscape:persp3d-origin="0.5 : 0.33333333 : 1"
       inkscape:vp_z="1 : 0.5 : 1"
       inkscape:vp_y="0 : 1000 : 0"
       inkscape:vp_x="0 : 0.5 : 1"
       sodipodi:type="inkscape:persp3d" />
    <inkscape:perspective
       id="perspective3830"
       inkscape:persp3d-origin="0.5 : 0.33333333 : 1"
       inkscape:vp_z="1 : 0.5 : 1"
       inkscape:vp_y="0 : 1000 : 0"
       inkscape:vp_x="0 : 0.5 : 1"
       sodipodi:type="inkscape:persp3d" />
    <inkscape:perspective
       id="perspective3830-4"
       inkscape:persp3d-origin="0.5 : 0.33333333 : 1"
       inkscape:vp_z="1 : 0.5 : 1"
       inkscape:vp_y="0 : 1000 : 0"
       inkscape:vp_x="0 : 0.5 : 1"
       sodipodi:type="inkscape:persp3d" />
    <inkscape:perspective
       id="perspective3863"
       inkscape:persp3d-origin="0.5 : 0.33333333 : 1"
       inkscape:vp_z="1 : 0.5 : 1"
       inkscape:vp_y="0 : 1000 : 0"
       inkscape:vp_x="0 : 0.5 : 1"
       sodipodi:type="inkscape:persp3d" />
    <inkscape:perspective
       id="perspective3885"
       inkscape:persp3d-origin="0.5 : 0.33333333 : 1"
       inkscape:vp_z="1 : 0.5 : 1"
       inkscape:vp_y="0 : 1000 : 0"
       inkscape:vp_x="0 : 0.5 : 1"
       sodipodi:type="inkscape:persp3d" />
    <inkscape:perspective
       id="perspective3885-8"
       inkscape:persp3d-origin="0.5 : 0.33333333 : 1"
       inkscape:vp_z="1 : 0.5 : 1"
       inkscape:vp_y="0 : 1000 : 0"
       inkscape:vp_x="0 : 0.5 : 1"
       sodipodi:type="inkscape:persp3d" />
    <inkscape:perspective
       id="perspective3916"
       inkscape:persp3d-origin="0.5 : 0.33333333 : 1"
       inkscape:vp_z="1 : 0.5 : 1"
       inkscape:vp_y="0 : 1000 : 0"
       inkscape:vp_x="0 : 0.5 : 1"
       sodipodi:type="inkscape:persp3d" />
    <inkscape:perspective
       id="perspective3942"
       inkscape:persp3d-origin="0.5 : 0.33333333 : 1"
       inkscape:vp_z="1 : 0.5 : 1"
       inkscape:vp_y="0 : 1000 : 0"
       inkscape:vp_x="0 : 0.5 : 1"
       sodipodi:type="inkscape:persp3d" />
    <inkscape:perspective
       id="perspective3942-5"
       inkscape:persp3d-origin="0.5 : 0.33333333 : 1"
       inkscape:vp_z="1 : 0.5 : 1"
       inkscape:vp_y="0 : 1000 : 0"
       inkscape:vp_x="0 : 0.5 : 1"
       sodipodi:type="inkscape:persp3d" />
    <inkscape:perspective
       id="perspective3973"
       inkscape:persp3d-origin="0.5 : 0.33333333 : 1"
       inkscape:vp_z="1 : 0.5 : 1"
       inkscape:vp_y="0 : 1000 : 0"
       inkscape:vp_x="0 : 0.5 : 1"
       sodipodi:type="inkscape:persp3d" />
    <inkscape:perspective
       id="perspective3995"
       inkscape:persp3d-origin="0.5 : 0.33333333 : 1"
       inkscape:vp_z="1 : 0.5 : 1"
       inkscape:vp_y="0 : 1000 : 0"
       inkscape:vp_x="0 : 0.5 : 1"
       sodipodi:type="inkscape:persp3d" />
    <inkscape:perspective
       id="perspective4023"
       inkscape:persp3d-origin="0.5 : 0.33333333 : 1"
       inkscape:vp_z="1 : 0.5 : 1"
       inkscape:vp_y="0 : 1000 : 0"
       inkscape:vp_x="0 : 0.5 : 1"
       sodipodi:type="inkscape:persp3d" />
    <inkscape:perspective
       id="perspective4023-5"
       inkscape:persp3d-origin="0.5 : 0.33333333 : 1"
       inkscape:vp_z="1 : 0.5 : 1"
       inkscape:vp_y="0 : 1000 : 0"
       inkscape:vp_x="0 : 0.5 : 1"
       sodipodi:type="inkscape:persp3d" />
    <inkscape:perspective
       id="perspective4058"
       inkscape:persp3d-origin="0.5 : 0.33333333 : 1"
       inkscape:vp_z="1 : 0.5 : 1"
       inkscape:vp_y="0 : 1000 : 0"
       inkscape:vp_x="0 : 0.5 : 1"
       sodipodi:type="inkscape:persp3d" />
  </defs>
  <sodipodi:namedview
     id="base"
     pagecolor="#ffffff"
     bordercolor="#666666"
     borderopacity="1.0"
     inkscape:pageopacity="0.0"
     inkscape:pageshadow="2"
     inkscape:zoom="7.1666667"
     inkscape:cx="107.69491"
     inkscape:cy="1009"
     inkscape:document-units="px"
     inkscape:current-layer="layer1"
     showgrid="true"
     inkscape:snap-global="true"
     inkscape:window-width="1280"
     inkscape:window-height="938"
     inkscape:window-x="-4"
     inkscape:window-y="-4"
     inkscape:window-maximized="1">
    <inkscape:grid
       type="xygrid"
       id="grid2830" />
  </sodipodi:namedview>
  <metadata
     id="metadata7">
    <rdf:RDF>
      <cc:Work
         rdf:about="">
        <dc:format>image/svg+xml</dc:format>
        <dc:type
           rdf:resource="http://purl.org/dc/dcmitype/StillImage" />
        <dc:title></dc:title>
      </cc:Work>
    </rdf:RDF>
  </metadata>
  <g
     inkscape:label="Layer 1"
     inkscape:groupmode="layer"
     id="layer1">
    <image
       width="12"
       height="12"
       id="image3788-1"
       x="87"
       y="37.362183"
       xlink:href="C:\Program Files\Inkscape\.\inkscape_pasted_image_20101227_164839.png"
       sodipodi:absref="C:\Program Files\Inkscape\.\inkscape_pasted_image_20101227_164839.png" />
    <image
       width="12"
       height="12"
       id="image3788-1-7"
       x="99"
       y="37.362183"
       xlink:href="C:\Program Files\Inkscape\.\inkscape_pasted_image_20101227_164839.png"
       sodipodi:absref="C:\Program Files\Inkscape\.\inkscape_pasted_image_20101227_164839.png" />
    <image
       width="12"
       height="12"
       id="image3788-1-0"
       x="111"
       y="37.362183"
       xlink:href="C:\Program Files\Inkscape\.\inkscape_pasted_image_20101227_164839.png"
       sodipodi:absref="C:\Program Files\Inkscape\.\inkscape_pasted_image_20101227_164839.png" />
    <image
       sodipodi:absref="C:\Program Files\Inkscape\.\inkscape_pasted_image_20101227_164839.png"
       y="37.362183"
       x="75"
       id="image3788"
       height="12"
       width="12"
       xlink:href="C:\Program Files\Inkscape\.\inkscape_pasted_image_20101227_164839.png" />
    <path
       style="fill:#000000;fill-opacity:0.57070706999999998;stroke:#000000;stroke-width:0.5;stroke-linecap:butt;stroke-linejoin:miter;stroke-opacity:1;stroke-miterlimit:4;stroke-dasharray:none"
       d="m 76,43.362183 2,-2 0,1 2,0 0,-1.999999 -1,0 2,-2 2,2 -1,0 0,1.999999 2,0 0,-1 2,2 -2,2 0,-1 -2,0 0,1.999999 1.2,0 -2.2,2 -2,-2 1,0 0,-1.999999 -2,0 0,1 -2,-2 z"
       id="path2836"
       inkscape:export-filename="C:\Program Files\BlitzMax\mod\dwlab.mod\framework.mod\editor\modifiers.png"
       inkscape:export-xdpi="90"
       inkscape:export-ydpi="90" />
    <path
       style="fill:#000000;stroke:#000000;stroke-width:0.5;stroke-linecap:butt;stroke-linejoin:miter;stroke-miterlimit:4;stroke-opacity:1;stroke-dasharray:none;fill-opacity:0.46969696999999999"
       d="M 113 39.375 L 112.90625 42.15625 L 114 41.375 L 116 43.375 L 114 45.375 L 113 44.375 L 113 47.375 L 116 47.375 L 115 46.375 L 117 44.375 L 119 46.375 L 118 47.375 L 121 47.375 L 121 44.375 L 120 45.375 L 118 43.375 L 120 41.375 L 121 42.375 L 121 39.375 L 118 39.375 L 119 40.375 L 117 42.375 L 115 40.375 L 116 39.375 L 113 39.375 z "
       id="path3816"
       inkscape:export-filename="C:\Program Files\BlitzMax\mod\dwlab.mod\framework.mod\editor\modifiers.png"
       inkscape:export-xdpi="90"
       inkscape:export-ydpi="90" />
    <path
       style="fill:#000000;stroke:#000000;stroke-width:0.5;stroke-linecap:butt;stroke-linejoin:miter;stroke-opacity:1;stroke-miterlimit:4;stroke-dasharray:none;fill-opacity:0.46969696999999999"
       d="m 88,43.362183 2,-2 0,1 6,0 0,-1 2,2 -2,2 0,-1 -6,0 0,1 -2,-2 z"
       id="path3853"
       inkscape:export-filename="C:\Program Files\BlitzMax\mod\dwlab.mod\framework.mod\editor\modifiers.png"
       inkscape:export-xdpi="90"
       inkscape:export-ydpi="90" />
    <path
       style="fill:#000000;fill-opacity:0.46969694000000001;stroke:#000000;stroke-width:0.5;stroke-linecap:butt;stroke-linejoin:miter;stroke-miterlimit:4;stroke-opacity:1;stroke-dasharray:none"
       d="m 105,38.362183 2,2 -1,0 0,6 1,0 -2,2 -2,-2 1,0 0,-6 -1,0 2,-2 z"
       id="path3853-9"
       inkscape:export-filename="C:\Program Files\BlitzMax\mod\dwlab.mod\framework.mod\editor\modifiers.png"
       inkscape:export-xdpi="90"
       inkscape:export-ydpi="90" />
    <image
       width="12"
       height="12"
       id="image3788-1-0-4"
       x="123"
       y="37.362183"
       xlink:href="C:\Program Files\Inkscape\.\inkscape_pasted_image_20101227_164839.png"
       sodipodi:absref="C:\Program Files\Inkscape\.\inkscape_pasted_image_20101227_164839.png" />
    <image
       width="12"
       height="12"
       id="image3788-1-0-8"
       x="135"
       y="37.362183"
       xlink:href="C:\Program Files\Inkscape\.\inkscape_pasted_image_20101227_164839.png"
       sodipodi:absref="C:\Program Files\Inkscape\.\inkscape_pasted_image_20101227_164839.png" />
    <path
       style="fill:#000000;stroke:#000000;stroke-width:0.5;stroke-linecap:butt;stroke-linejoin:miter;stroke-miterlimit:4;stroke-opacity:1;stroke-dasharray:none;fill-opacity:0.46969696999999999"
       d="M 124.89407,42.150318 125,39.362183 l 3,0 -1,1 5,5 1,-1 0,3 -3,0 1,-1 -5,-5 -1.10593,0.788135 z"
       id="path3816-2"
       inkscape:export-filename="C:\Program Files\BlitzMax\mod\dwlab.mod\framework.mod\editor\modifiers.png"
       inkscape:export-xdpi="90"
       inkscape:export-ydpi="90" />
    <path
       style="fill:#000000;stroke:#000000;stroke-width:0.5;stroke-linecap:butt;stroke-linejoin:miter;stroke-miterlimit:4;stroke-opacity:1;stroke-dasharray:none;fill-opacity:0.46969696999999999"
       d="m 142,39.362183 1,1 -5,5 -1,-1 0,3 3,0 -1,-1 5,-5 1,1 0,-3 -3,0 z"
       id="path3818-4"
       inkscape:export-filename="C:\Program Files\BlitzMax\mod\dwlab.mod\framework.mod\editor\modifiers.png"
       inkscape:export-xdpi="90"
       inkscape:export-ydpi="90" />
    <image
       width="12"
       height="12"
       id="image3788-1-0-8-5"
       x="147"
       y="37.362183"
       xlink:href="C:\Program Files\Inkscape\.\inkscape_pasted_image_20101227_164839.png"
       sodipodi:absref="C:\Program Files\Inkscape\.\inkscape_pasted_image_20101227_164839.png" />
    <image
       width="12"
       height="12"
       id="image3788-1-0-8-1"
       x="159"
       y="37.362183"
       xlink:href="C:\Program Files\Inkscape\.\inkscape_pasted_image_20101227_164839.png"
       sodipodi:absref="C:\Program Files\Inkscape\.\inkscape_pasted_image_20101227_164839.png" />
    <path
       style="fill:#000000;fill-opacity:0.46969694000000001;stroke:#000000;stroke-width:0.5;stroke-linecap:butt;stroke-linejoin:miter;stroke-miterlimit:4;stroke-opacity:1;stroke-dasharray:none"
       d="M 165 38.375 L 163 40.375 L 164 40.375 L 164 42.375 L 162 42.375 L 162 44.375 L 164 44.375 L 164 46.375 L 163 46.375 L 165 48.375 L 167 46.375 L 166 46.375 L 166 44.375 L 168 44.375 L 168 42.375 L 166 42.375 L 166 40.375 L 167 40.375 L 165 38.375 z "
       id="path3853-9-7"
       inkscape:export-filename="C:\Program Files\BlitzMax\mod\dwlab.mod\framework.mod\editor\modifiers.png"
       inkscape:export-xdpi="90"
       inkscape:export-ydpi="90" />
    <path
       style="fill:#000000;fill-opacity:0.46969694000000001;stroke:#000000;stroke-width:0.5;stroke-linecap:butt;stroke-linejoin:miter;stroke-miterlimit:4;stroke-opacity:1;stroke-dasharray:none"
       d="M 152 40.375 L 152 42.375 L 150 42.375 L 150 41.375 L 148 43.375 L 150 45.375 L 150 44.375 L 152 44.375 L 152 46.375 L 154 46.375 L 154 44.375 L 156 44.375 L 156 45.375 L 158 43.375 L 156 41.375 L 156 42.375 L 154 42.375 L 154 40.375 L 152 40.375 z "
       id="path3853-1"
       inkscape:export-filename="C:\Program Files\BlitzMax\mod\dwlab.mod\framework.mod\editor\modifiers.png"
       inkscape:export-xdpi="90"
       inkscape:export-ydpi="90" />
    <image
       width="12"
       height="12"
       id="image3788-1-0-8-1-1"
       x="171"
       y="37.362183"
       xlink:href="C:\Program Files\Inkscape\.\inkscape_pasted_image_20101227_164839.png"
       sodipodi:absref="C:\Program Files\Inkscape\.\inkscape_pasted_image_20101227_164839.png" />
    <image
       width="12"
       height="12"
       id="image3788-1-0-8-1-2"
       x="183"
       y="37.362183"
       xlink:href="C:\Program Files\Inkscape\.\inkscape_pasted_image_20101227_164839.png"
       sodipodi:absref="C:\Program Files\Inkscape\.\inkscape_pasted_image_20101227_164839.png" />
    <path
       style="fill:#000000;fill-opacity:0.46969694000000001;stroke:#000000;stroke-width:0.5;stroke-linecap:butt;stroke-linejoin:miter;stroke-miterlimit:4;stroke-opacity:1;stroke-dasharray:none"
       d="m 173,43.362183 c 0,-2 2,-4 4,-4 2,0 4,2 4,4 -0.66667,0 -1.33333,0 -2,0 0,-1 -1,-2 -2,-2 -1,0 -2,1 -2,2 -0.16667,0 1,0 1,0 0,0 -1.83333,2 -2,2 -0.16667,0 -2,-2 -2,-2 0,0 1.16666,0 1,0 z"
       id="path4048"
       sodipodi:nodetypes="ccccccsssc"
       inkscape:export-xdpi="90"
       inkscape:export-ydpi="90"
       inkscape:export-filename="C:\Program Files\BlitzMax\mod\dwlab.mod\framework.mod\editor\modifiers.png" />
    <path
       style="fill:#000000;fill-opacity:0.46969694000000001;stroke:#000000;stroke-width:0.5;stroke-linecap:butt;stroke-linejoin:miter;stroke-miterlimit:4;stroke-opacity:1;stroke-dasharray:none"
       d="m 193,43.362183 c 0,-2 -2,-4 -4,-4 -2,0 -4,2 -4,4 0.66667,0 1.33333,0 2,0 0,-1 1,-2 2,-2 1,0 2,1 2,2 0.16667,0 -1,0 -1,0 0,0 1.83333,2 2,2 0.16667,0 2,-2 2,-2 0,0 -1.16666,0 -1,0 z"
       id="path4048-7"
       sodipodi:nodetypes="ccccccsssc"
       inkscape:export-xdpi="90"
       inkscape:export-ydpi="90"
       inkscape:export-filename="C:\Program Files\BlitzMax\mod\dwlab.mod\framework.mod\editor\modifiers.png" />
  </g>
</svg>
